<svg width="39" height="40" viewBox="0 0 39 40" fill="none" xmlns="http://www.w3.org/2000/svg">
<path d="M19.5 3.125C16.2459 3.125 13.0648 4.1147 10.3591 5.96895C7.65344 7.8232 5.5446 10.4587 4.2993 13.5422C3.054 16.6257 2.72818 20.0187 3.36302 23.2921C3.99787 26.5656 5.56488 29.5724 7.86589 31.9324C10.1669 34.2924 13.0986 35.8996 16.2902 36.5508C19.4818 37.2019 22.7899 36.8677 25.7963 35.5905C28.8028 34.3132 31.3724 32.1503 33.1803 29.3752C34.9882 26.6002 35.9531 23.3376 35.9531 20C35.9483 15.526 34.2133 11.2367 31.1288 8.07305C28.0443 4.90945 23.8622 3.12996 19.5 3.125ZM19.5 33.125C16.969 33.125 14.4949 32.3552 12.3904 30.913C10.286 29.4708 8.6458 27.421 7.67724 25.0227C6.70867 22.6244 6.45525 19.9854 6.94902 17.4394C7.44279 14.8934 8.66157 12.5548 10.4513 10.7192C12.2409 8.88366 14.5211 7.63362 17.0035 7.12719C19.4858 6.62076 22.0588 6.88068 24.3972 7.87408C26.7355 8.86748 28.7341 10.5497 30.1402 12.7081C31.5464 14.8665 32.2969 17.4041 32.2969 20C32.2933 23.4798 30.9438 26.8161 28.5448 29.2767C26.1457 31.7373 22.8928 33.1213 19.5 33.125ZM26.8872 18.6734C27.0576 18.8476 27.1928 19.0546 27.2851 19.2825C27.3773 19.5104 27.4248 19.7548 27.4248 20.0016C27.4248 20.2483 27.3773 20.4927 27.2851 20.7206C27.1928 20.9485 27.0576 21.1555 26.8872 21.3297L22.0122 26.3297C21.8421 26.5041 21.6402 26.6425 21.418 26.7368C21.1959 26.8312 20.9577 26.8798 20.7172 26.8798C20.4767 26.8798 20.2386 26.8312 20.0164 26.7368C19.7942 26.6425 19.5924 26.5041 19.4223 26.3297C19.2523 26.1553 19.1174 25.9482 19.0253 25.7203C18.9333 25.4925 18.8859 25.2482 18.8859 25.0016C18.8859 24.7549 18.9333 24.5107 19.0253 24.2828C19.1174 24.0549 19.2523 23.8478 19.4223 23.6734L21.1758 21.875H13.4063C12.9214 21.875 12.4564 21.6775 12.1136 21.3258C11.7707 20.9742 11.5781 20.4973 11.5781 20C11.5781 19.5027 11.7707 19.0258 12.1136 18.6742C12.4564 18.3225 12.9214 18.125 13.4063 18.125H21.1758L19.4208 16.3266C19.2507 16.1522 19.1158 15.9451 19.0238 15.7172C18.9318 15.4893 18.8844 15.2451 18.8844 14.9984C18.8844 14.7518 18.9318 14.5075 19.0238 14.2797C19.1158 14.0518 19.2507 13.8447 19.4208 13.6703C19.5908 13.4959 19.7927 13.3575 20.0149 13.2632C20.2371 13.1688 20.4752 13.1202 20.7157 13.1202C20.9562 13.1202 21.1943 13.1688 21.4165 13.2632C21.6387 13.3575 21.8406 13.4959 22.0106 13.6703L26.8872 18.6734Z" fill="#929292"/>
</svg>
