<svg width="40" height="41" viewBox="0 0 40 41" fill="none" xmlns="http://www.w3.org/2000/svg">
<path d="M17.9499 31.2625C15.4678 31.2625 13.0413 30.508 10.9775 29.0945C8.91366 27.6811 7.3051 25.672 6.35522 23.3215C5.40534 20.9709 5.15681 18.3845 5.64105 15.8891C6.1253 13.3938 7.32057 11.1017 9.07572 9.30268C10.8309 7.50366 13.0671 6.2785 15.5015 5.78215C17.936 5.2858 20.4594 5.54055 22.7526 6.51417C25.0458 7.4878 27.0058 9.13658 28.3849 11.252C29.7639 13.3674 30.4999 15.8545 30.4999 18.3987C30.4999 20.088 30.1753 21.7608 29.5446 23.3215C28.9139 24.8822 27.9895 26.3003 26.8241 27.4948C25.6587 28.6893 24.2752 29.6368 22.7526 30.2833C21.2299 30.9297 19.598 31.2625 17.9499 31.2625ZM17.9499 8.11456C15.9721 8.11456 14.0387 8.71571 12.3942 9.842C10.7497 10.9683 9.46799 12.5691 8.71111 14.4421C7.95424 16.315 7.7562 18.3759 8.14206 20.3642C8.52791 22.3525 9.48032 24.1789 10.8788 25.6124C12.2774 27.0459 14.0592 28.0221 15.999 28.4176C17.9388 28.8131 19.9495 28.6101 21.7767 27.8343C23.604 27.0585 25.1658 25.7448 26.2646 24.0592C27.3634 22.3736 27.9499 20.3918 27.9499 18.3646C27.9499 15.6461 26.8963 13.039 25.021 11.1167C23.1456 9.19447 20.6021 8.11456 17.9499 8.11456Z" fill="#B6B6B6"/>
<path d="M33.3331 35.4479C33.1689 35.4487 33.0061 35.4159 32.8545 35.3513C32.7028 35.2868 32.5652 35.1918 32.4498 35.0721L25.5664 28.0166C25.3456 27.7738 25.2254 27.4525 25.2312 27.1206C25.2369 26.7887 25.3681 26.472 25.5971 26.2372C25.8261 26.0025 26.1351 25.868 26.4589 25.8621C26.7827 25.8563 27.0962 25.9795 27.3331 26.2058L34.2164 33.2612C34.4505 33.5015 34.582 33.8271 34.582 34.1666C34.582 34.5062 34.4505 34.8318 34.2164 35.0721C34.101 35.1918 33.9635 35.2868 33.8118 35.3513C33.6601 35.4159 33.4973 35.4487 33.3331 35.4479Z" fill="#B6B6B6"/>
</svg>
