<svg width="24" height="24" viewBox="0 0 24 24" fill="none" xmlns="http://www.w3.org/2000/svg">
<path fill-rule="evenodd" clip-rule="evenodd" d="M12 22.8C17.9646 22.8 22.8 17.9646 22.8 12C22.8 6.03539 17.9646 1.2 12 1.2C6.0354 1.2 1.2 6.03539 1.2 12C1.2 17.9646 6.0354 22.8 12 22.8ZM12 24C18.6276 24 24 18.6276 24 12C24 5.37239 18.6276 0 12 0C5.3724 0 0 5.37239 0 12C0 18.6276 5.3724 24 12 24Z" fill="#2E2E2E"/>
<path d="M4.8 18.9779C4.8 18.3581 5.2632 17.8343 5.88 17.7659C10.509 17.2535 13.512 17.2997 18.1308 17.7773C18.3614 17.8016 18.58 17.8924 18.7599 18.0388C18.9398 18.1853 19.0731 18.3809 19.1436 18.6018C19.2141 18.8228 19.2187 19.0594 19.1569 19.283C19.0951 19.5065 18.9696 19.7072 18.7956 19.8605C13.3446 24.6119 10.2294 24.5465 5.184 19.8653C4.938 19.6373 4.8 19.3127 4.8 18.9779Z" fill="#2E2E2E"/>
<path fill-rule="evenodd" clip-rule="evenodd" d="M18.069 18.3738C13.4868 17.8998 10.527 17.8554 5.9454 18.3624C5.79459 18.3799 5.65555 18.4525 5.55492 18.5662C5.45429 18.6799 5.39913 18.8267 5.4 18.9786C5.4 19.1502 5.4714 19.3128 5.592 19.4256C8.0928 21.7452 9.9876 22.7934 11.8398 22.8C13.6986 22.8066 15.6954 21.7668 18.4014 19.4088C18.4874 19.3322 18.5493 19.2324 18.5795 19.1214C18.6098 19.0103 18.6072 18.8929 18.572 18.7833C18.5368 18.6738 18.4705 18.5768 18.3812 18.5042C18.2919 18.4316 18.1834 18.3859 18.069 18.3738ZM5.814 17.1696C10.4916 16.6518 13.5384 16.6986 18.1932 17.1804C18.5402 17.2166 18.8691 17.3532 19.1396 17.5734C19.4102 17.7937 19.6106 18.0881 19.7164 18.4205C19.8223 18.7529 19.8289 19.109 19.7354 19.4451C19.642 19.7812 19.4526 20.0828 19.1904 20.313C16.4454 22.7058 14.1594 24.009 11.8362 24C9.5064 23.9916 7.3212 22.6662 4.7766 20.3052C4.59441 20.1355 4.44918 19.93 4.34997 19.7017C4.25076 19.4733 4.1997 19.2269 4.2 18.978C4.19913 18.5306 4.36332 18.0987 4.66114 17.7649C4.95896 17.4311 5.36945 17.2195 5.814 17.1696Z" fill="#2E2E2E"/>
<path d="M16.8 9.59998C16.8 10.873 16.2943 12.0939 15.3941 12.9941C14.4939 13.8943 13.273 14.4 12 14.4C10.727 14.4 9.50607 13.8943 8.60589 12.9941C7.70572 12.0939 7.2 10.873 7.2 9.59998C7.2 8.32694 7.70572 7.10605 8.60589 6.20587C9.50607 5.3057 10.727 4.79999 12 4.79999C13.273 4.79999 14.4939 5.3057 15.3941 6.20587C16.2943 7.10605 16.8 8.32694 16.8 9.59998Z" fill="#2E2E2E"/>
<path fill-rule="evenodd" clip-rule="evenodd" d="M12 13.2C12.9548 13.2 13.8705 12.8207 14.5456 12.1456C15.2207 11.4704 15.6 10.5548 15.6 9.59998C15.6 8.6452 15.2207 7.72953 14.5456 7.0544C13.8705 6.37927 12.9548 5.99999 12 5.99999C11.0452 5.99999 10.1296 6.37927 9.45442 7.0544C8.77929 7.72953 8.4 8.6452 8.4 9.59998C8.4 10.5548 8.77929 11.4704 9.45442 12.1456C10.1296 12.8207 11.0452 13.2 12 13.2ZM12 14.4C13.273 14.4 14.4939 13.8943 15.3941 12.9941C16.2943 12.0939 16.8 10.873 16.8 9.59998C16.8 8.32694 16.2943 7.10605 15.3941 6.20587C14.4939 5.3057 13.273 4.79999 12 4.79999C10.727 4.79999 9.50607 5.3057 8.60589 6.20587C7.70572 7.10605 7.2 8.32694 7.2 9.59998C7.2 10.873 7.70572 12.0939 8.60589 12.9941C9.50607 13.8943 10.727 14.4 12 14.4Z" fill="#2E2E2E"/>
</svg>
