<svg width="392" height="75" viewBox="0 0 392 75" fill="none" xmlns="http://www.w3.org/2000/svg">
<path d="M168.5 32.2V37.55H176.1V32.2H168.5ZM183.45 15.15V61.45H189.8V15.15H183.45ZM174 15.85V59.35H180.25V15.85H174ZM160.4 18.4C154.3 18.4 150.4 24.75 150.4 35.2C150.4 45.7 154.3 52.05 160.4 52.05C166.55 52.05 170.5 45.7 170.5 35.2C170.5 24.75 166.55 18.4 160.4 18.4ZM160.4 24.65C163 24.65 164.45 28.15 164.45 35.2C164.45 42.3 163 45.75 160.4 45.75C157.9 45.75 156.45 42.3 156.45 35.2C156.45 28.15 157.9 24.65 160.4 24.65ZM239.512 15.1V61.4H246.212V15.1H239.512ZM244.462 32.8V38.25H252.612V32.8H244.462ZM227.362 19.9V21.05C227.362 33.6 221.612 42.1 209.462 48.4L213.162 53.45C228.562 45.7 233.862 33.8 233.862 19.9H227.362ZM212.012 19.9V25.25H230.762V19.9H212.012ZM287.708 15.15V40.05H294.408V15.15H287.708ZM263.608 42.05V60.95H294.408V42.05H287.808V46.35H270.158V42.05H263.608ZM270.158 51.45H287.808V55.65H270.158V51.45ZM269.208 17.05C262.008 17.05 256.608 21.6 256.608 28C256.608 34.4 262.008 38.95 269.208 38.95C276.408 38.95 281.758 34.4 281.758 28C281.758 21.6 276.408 17.05 269.208 17.05ZM269.208 22.55C272.708 22.55 275.258 24.6 275.258 28C275.258 31.45 272.708 33.45 269.208 33.45C265.658 33.45 263.108 31.45 263.108 28C263.108 24.6 265.658 22.55 269.208 22.55ZM331.604 15.15V61.45H338.204V15.15H331.604ZM336.704 33.2V38.75H344.904V33.2H336.704ZM301.704 22V27.3H328.654V22H301.704ZM315.254 29.9C308.504 29.9 303.504 34.5 303.504 40.95C303.504 47.4 308.504 52 315.254 52C322.004 52 327.004 47.4 327.004 40.95C327.004 34.5 322.004 29.9 315.254 29.9ZM315.254 35.3C318.404 35.3 320.654 37.4 320.654 40.95C320.654 44.5 318.404 46.6 315.254 46.6C312.104 46.6 309.854 44.5 309.854 40.95C309.854 37.4 312.104 35.3 315.254 35.3ZM311.904 15.9V24H318.554V15.9H311.904ZM379.8 15.15V61.45H386.5V15.15H379.8ZM366.15 19.95V21.15C366.15 33.55 361.35 41.95 348.05 48.35L351.5 53.65C367.95 45.7 372.75 34.1 372.75 19.95H366.15ZM350.5 19.95V25.2H369.3V19.95H350.5Z" fill="black"/>
<path d="M11.64 12.16C26.4 12.32 34.48 12.4 35.88 12.4C38.76 12.4 40.2 13.52 40.2 15.76V16C40.2 21.4 39.48 26.6 38.04 31.6C37.36 32.24 36.72 32.56 36.12 32.56H35.16C34.04 32 33.48 31.2 33.48 30.16C34.44 23.52 34.92 19.6 34.92 18.4V17.68C27 17.52 20.84 17.44 16.44 17.44H10.2C9.16 17.44 8.36 16.88 7.8 15.76V14.08C8.36 12.8 9.64 12.16 11.64 12.16ZM23.88 26.98H25.08C26.2 27.62 26.76 28.58 26.76 29.86V33.94H28.68C31.08 33.94 35 34.1 40.44 34.42L42.84 34.18C44.28 34.66 45 35.46 45 36.58V37.06C44.64 38.66 43.84 39.46 42.6 39.46C41.04 39.46 32.72 39.3 17.64 38.98C11.24 39.14 7.56 39.22 6.6 39.22C4.2 38.94 3 38.06 3 36.58V36.34C3.32 34.74 4.12 33.94 5.4 33.94C8.32 33.94 13.76 33.86 21.72 33.7L21.48 33.22V31.3C21.48 28.42 22.28 26.98 23.88 26.98ZM24.42 42.7C31.62 42.7 36.58 45.08 39.3 49.84C39.94 51.48 40.26 53.1 40.26 54.7C40.26 60.5 35.94 64.26 27.3 65.98H25.14C16.02 65.98 10.34 63.58 8.1 58.78C7.62 57.5 7.38 56.32 7.38 55.24V54.46C7.38 49.46 10.1 45.96 15.54 43.96C17.58 43.12 20.54 42.7 24.42 42.7ZM12.42 55.24C13.46 58.64 17.06 60.34 23.22 60.34H26.82C30.58 60.34 33.3 58.64 34.98 55.24V54.22C34.98 50.82 31.62 48.86 24.9 48.34H24.18C16.34 48.34 12.42 50.64 12.42 55.24ZM73.0683 14.14C80.2683 14.14 85.2283 16.38 87.9483 20.86C88.5883 22.38 88.9083 23.9 88.9083 25.42C88.9083 30.86 84.5883 34.38 75.9483 35.98H73.7883C64.6683 35.98 58.9883 33.74 56.7483 29.26C56.2683 28.02 56.0283 26.9 56.0283 25.9V25.18C56.0283 20.46 58.7483 17.18 64.1883 15.34C66.2283 14.54 69.1883 14.14 73.0683 14.14ZM61.0683 25.9C62.1083 29.1 65.7083 30.7 71.8683 30.7H75.4683C79.2283 30.7 81.9483 29.1 83.6283 25.9V24.94C83.6283 21.78 80.2683 19.94 73.5483 19.42H72.8283C64.9883 19.42 61.0683 21.58 61.0683 25.9ZM58.6683 39.22C64.4683 39.38 69.3483 39.46 73.3083 39.46H90.3483C92.5883 39.74 93.7083 40.62 93.7083 42.1C93.3883 43.86 92.5083 44.74 91.0683 44.74H89.1483C87.7883 44.74 85.6283 44.66 82.6683 44.5V59.62C82.1083 60.74 81.3083 61.3 80.2683 61.3C78.3483 61.3 77.3883 59.3 77.3883 55.3V44.5H67.0683V58.42C67.0683 59.3 66.5083 60.1 65.3883 60.82H63.7083C62.9883 60.58 62.3483 59.78 61.7883 58.42C61.9483 56.02 62.0283 54.26 62.0283 53.14V44.5H53.8683C51.9483 44.38 50.9883 43.5 50.9883 41.86C50.9883 40.26 52.5083 39.46 55.5483 39.46C56.5883 39.46 57.6283 39.38 58.6683 39.22ZM117.68 12.34H130.4C134.08 12.34 135.92 14.18 135.92 17.86V25.3C135.92 27.7 133.76 28.9 129.44 28.9C128.72 29.06 126.32 29.14 122.24 29.14C111.68 29.14 106.4 28.66 106.4 27.7L105.68 25.54C105.84 23.86 105.92 22.5 105.92 21.46C105.92 20.34 105.84 18.26 105.68 15.22C106 14.1 106.64 13.22 107.6 12.58C111.88 12.42 115.24 12.34 117.68 12.34ZM110.96 17.62V17.86C110.96 18.74 111.04 19.86 111.2 21.22C111.04 22.06 110.96 22.86 110.96 23.62C112.56 23.78 113.76 23.86 114.56 23.86H130.64V17.86C130.64 17.54 130.48 17.38 130.16 17.38H129.44C125.04 17.38 118.88 17.46 110.96 17.62ZM120.56 26.98H121.76C122.88 27.62 123.44 28.58 123.44 29.86V33.94H125.36C127.76 33.94 131.68 34.1 137.12 34.42L139.52 34.18C140.96 34.66 141.68 35.46 141.68 36.58V37.06C141.32 38.66 140.52 39.46 139.28 39.46C137.72 39.46 129.4 39.3 114.32 38.98C107.92 39.14 104.24 39.22 103.28 39.22C100.88 38.94 99.6797 38.06 99.6797 36.58V36.34C99.9997 34.74 100.8 33.94 102.08 33.94C105 33.94 110.44 33.86 118.4 33.7L118.16 33.22V31.3C118.16 28.42 118.96 26.98 120.56 26.98ZM121.1 42.7C128.3 42.7 133.26 45.08 135.98 49.84C136.62 51.48 136.94 53.1 136.94 54.7C136.94 60.5 132.62 64.26 123.98 65.98H121.82C112.7 65.98 107.02 63.58 104.78 58.78C104.3 57.5 104.06 56.32 104.06 55.24V54.46C104.06 49.46 106.78 45.96 112.22 43.96C114.26 43.12 117.22 42.7 121.1 42.7ZM109.1 55.24C110.14 58.64 113.74 60.34 119.9 60.34H123.5C127.26 60.34 129.98 58.64 131.66 55.24V54.22C131.66 50.82 128.3 48.86 121.58 48.34H120.86C113.02 48.34 109.1 50.64 109.1 55.24Z" fill="black"/>
</svg>
